<?xml version="1.0" encoding="UTF-8"?>
<svg id="_レイヤー_1" data-name="レイヤー 1" xmlns="http://www.w3.org/2000/svg" viewBox="0 0 3246.731 415.461">
  <defs>
    <style>
      .cls-1 {
        fill: none;
      }

      .cls-1, .cls-2, .cls-3 {
        stroke-width: 0px;
      }

      .cls-2 {
        fill: #fff;
      }

      .cls-3 {
        fill: #212d3b;
        fill-rule: evenodd;
      }
    </style>
  </defs>
  <g>
    <path class="cls-2" d="m632.749,292.012c0,53.778-43.563,97.341-97.331,97.341H146.065C65.452,389.353,0,324.009,0,243.396S65.452,97.341,146.065,97.341c8.413,0,16.728.735,24.827,2.106C204.25,40.096,267.812,0,340.736,0c107.546,0,194.681,87.126,194.681,194.681,53.768,0,97.331,43.563,97.331,97.331"/>
    <rect class="cls-1" y=".01" width="632.749" height="389.343"/>
    <path class="cls-3" d="m234.099,203.281v46.12l-41.296,46.146-.078-50.005c-16.306-7.107-27.737-23.336-27.737-42.261v-46.077c0-25.48,20.639-46.12,46.128-46.12h109.562c15.014,0,28.228,7.288,36.644,18.391h-49.428c-40.762,0-73.797,33.035-73.797,73.805Zm224.612,115.36l-.138,59.48-48.54-54.923h-102.749c-30.563,0-55.345-24.783-55.345-55.354v-64.399c0-30.563,24.774-55.346,55.345-55.346h129.513c30.563,0,55.345,24.783,55.345,55.346v64.399c0,22.784-13.783,42.304-33.431,50.797Z"/>
    <rect class="cls-1" x="164.988" y="111.008" width="327.037" height="267.229"/>
    <g>
      <path class="cls-2" d="m400.417,198.338h-75.704c-4.217,0-7.635,3.418-7.635,7.635s3.418,7.635,7.635,7.635h75.704c4.217,0,7.635-3.418,7.635-7.635s-3.418-7.635-7.635-7.635"/>
      <path class="cls-2" d="m343.094,172.07h-18.385c-4.217,0-7.635,3.418-7.635,7.635s3.418,7.635,7.635,7.635h18.385c4.217,0,7.635-3.418,7.635-7.635s-3.418-7.635-7.635-7.635"/>
      <path class="cls-2" d="m421.199,226.293h-96.373c-4.217,0-7.635,3.418-7.635,7.635s3.418,7.635,7.635,7.635h96.373c4.217,0,7.635-3.418,7.635-7.635s-3.418-7.635-7.635-7.635"/>
      <path class="cls-2" d="m354.884,254.08h-28.902c-4.217,0-7.635,3.418-7.635,7.635s3.418,7.635,7.635,7.635h28.902c4.217,0,7.635-3.418,7.635-7.635s-3.418-7.635-7.635-7.635"/>
      <path class="cls-2" d="m400.416,278.662h-75.704c-4.217,0-7.635,3.418-7.635,7.635s3.418,7.635,7.635,7.635h75.704c4.217,0,7.635-3.418,7.635-7.635s-3.418-7.635-7.635-7.635"/>
    </g>
  </g>
  <g>
    <path class="cls-2" d="m964.85,341.576v-160.534l-52.609,104.444h-36.361l-52.996-104.444v160.534h-53.77V66.154h52.996l71.95,148.929,71.563-148.929h52.995v275.422h-53.769Z"/>
    <path class="cls-2" d="m1118.418,256.474c0,13.152,3.802,23.923,11.411,32.301,7.604,8.383,18.501,12.571,32.688,12.571,11.085,0,19.854-1.547,26.304-4.642,6.443-3.095,12.893-7.863,19.342-14.312l30.56,29.785c-5.162,5.162-10.317,9.671-15.474,13.539-5.161,3.868-10.771,7.156-16.826,9.864-6.062,2.708-12.705,4.775-19.922,6.189-7.223,1.414-15.347,2.128-24.37,2.128-11.865,0-23.403-1.548-34.622-4.643-11.218-3.095-21.148-8.57-29.785-16.439-8.644-7.864-15.606-18.436-20.889-31.721-5.289-13.279-7.931-30.106-7.931-50.481,0-16.5,2.128-31.14,6.383-43.904,4.255-12.766,10.251-23.53,17.987-32.301,7.737-8.764,16.954-15.406,27.659-19.921,10.698-4.51,22.629-6.77,35.781-6.77,13.926,0,26.365,2.453,37.329,7.35,10.958,4.901,20.176,11.604,27.658,20.114,7.477,8.511,13.152,18.635,17.021,30.366,3.868,11.738,5.803,24.563,5.803,38.49v22.436h-126.106Zm75.238-45.839c-.646-3.222-1.741-6.637-3.288-10.251-2.841-5.93-7.029-10.892-12.572-14.894-5.549-3.995-12.572-5.995-21.082-5.995s-15.54,2-21.082,5.995c-5.549,4.002-9.737,8.964-12.572,14.894-1.547,3.614-2.647,7.029-3.288,10.251-.646,3.228-1.1,7.029-1.354,11.411h76.592c-.26-4.382-.713-8.184-1.354-11.411Z"/>
    <path class="cls-2" d="m1525.357,341.576v-121.852c0-6.963-.967-12.765-2.901-17.407-1.935-4.642-4.515-8.377-7.736-11.218-3.228-2.835-6.836-4.896-10.831-6.189-4.002-1.287-7.931-1.934-11.799-1.934s-7.803.646-11.798,1.934c-4.002,1.294-7.61,3.288-10.832,5.996-3.228,2.708-5.868,6.383-7.93,11.024-2.067,4.643-3.095,10.19-3.095,16.634v123.012h-50.287v-121.852c0-6.963-.968-12.765-2.901-17.407-1.935-4.642-4.516-8.377-7.737-11.218-3.228-2.835-6.836-4.896-10.831-6.189-4.001-1.287-7.93-1.934-11.798-1.934s-7.804.646-11.799,1.934c-4.001,1.294-7.609,3.354-10.831,6.189-3.228,2.841-5.869,6.576-7.93,11.218-2.067,4.643-3.095,10.444-3.095,17.407v121.852h-50.288v-201.538h49.128v18.567c6.703-6.702,14.439-11.858,23.209-15.473,8.765-3.608,17.795-5.415,27.078-5.415,11.346,0,21.47,2.066,30.366,6.188,8.897,4.129,16.567,10.578,23.017,19.342,8.51-9.023,17.534-15.533,27.078-19.535,9.538-3.995,20.629-5.995,33.268-5.995,10.058,0,19.401,1.547,28.045,4.642,8.637,3.095,15.793,7.482,21.469,13.152,8.25,8.256,13.986,17.087,17.214,26.497,3.222,9.417,4.836,19.668,4.836,30.753v128.814h-50.288Z"/>
    <path class="cls-2" d="m1791.88,240.614c0,18.314-1.548,33.594-4.643,45.84-3.095,12.252-9.156,23.149-18.181,32.687-6.189,6.71-14.445,12.512-24.757,17.408-10.317,4.901-22.956,7.35-37.909,7.35s-27.531-2.448-37.716-7.35c-10.19-4.896-18.375-10.698-24.564-17.408-9.029-9.537-15.086-20.435-18.181-32.687-3.095-12.246-4.642-27.525-4.642-45.84s1.547-33.521,4.642-45.646c3.095-12.118,9.151-22.95,18.181-32.493,6.189-6.703,14.374-12.506,24.564-17.407,10.185-4.896,22.756-7.35,37.716-7.35s27.592,2.453,37.909,7.35c10.312,4.901,18.567,10.704,24.757,17.407,9.024,9.543,15.086,20.375,18.181,32.493,3.095,12.125,4.643,27.338,4.643,45.646Zm-50.288,0c0-10.571-.646-20.048-1.935-28.432-1.293-8.377-4.515-15.146-9.67-20.309-5.936-5.929-13.8-8.896-23.597-8.896-9.544,0-17.28,2.968-23.21,8.896-5.162,5.162-8.384,11.932-9.671,20.309-1.293,8.384-1.935,17.86-1.935,28.432s.642,20.115,1.935,28.626c1.287,8.51,4.509,15.346,9.671,20.502,5.93,5.936,13.666,8.896,23.21,8.896,9.797,0,17.661-2.961,23.597-8.896,5.155-5.156,8.377-11.992,9.67-20.502,1.288-8.511,1.935-18.048,1.935-28.626Z"/>
    <path class="cls-2" d="m1949.318,194.968c-3.868-3.868-7.736-6.83-11.604-8.896-3.868-2.062-8.897-3.095-15.087-3.095-3.868,0-7.736.713-11.604,2.127-3.868,1.421-7.35,3.675-10.444,6.77s-5.609,6.963-7.543,11.605c-1.935,4.642-2.901,10.19-2.901,16.633v121.465h-50.288v-201.538h49.128v19.342c4.896-5.93,11.858-11.024,20.889-15.28,9.023-4.255,18.954-6.382,29.785-6.382,9.798,0,18.436,1.42,25.918,4.255,7.477,2.841,14.699,7.736,21.662,14.699l-37.909,38.296Z"/>
    <path class="cls-2" d="m2090.892,374.071c-4.388,11.604-9.417,20.241-15.086,25.917-5.936,5.93-12.572,9.991-19.922,12.186-7.35,2.188-15.153,3.288-23.403,3.288h-19.729v-45.26h11.605c7.217,0,12.571-1.16,16.053-3.481,3.481-2.32,6.51-7.223,9.091-14.699l8.511-24.757-68.856-187.226h52.996l41.777,124.559,40.23-124.559h52.995l-86.263,234.032Z"/>
    <path class="cls-2" d="m2481.39,294.77c-6.062,10.831-13.539,19.922-22.436,27.271-8.897,7.35-19.021,12.832-30.366,16.44-11.352,3.608-23.343,5.416-35.976,5.416-15.219,0-28.951-2.575-41.197-7.737-12.251-5.155-23.276-12.632-33.073-22.436-6.963-6.963-12.318-14.373-16.054-22.243-3.741-7.863-6.383-16.307-7.93-25.337-1.548-9.024-2.454-18.694-2.708-29.013-.26-10.311-.387-21.402-.387-33.267s.127-22.95.387-33.268c.254-10.312,1.16-19.981,2.708-29.012,1.547-9.024,4.188-17.468,7.93-25.338,3.735-7.863,9.091-15.28,16.054-22.243,9.797-9.797,20.822-17.274,33.073-22.436,12.246-5.156,25.979-7.736,41.197-7.736,12.893,0,24.951,1.807,36.169,5.416,11.218,3.614,21.275,9.09,30.173,16.44,8.896,7.35,16.373,16.44,22.436,27.271,6.057,10.832,10.251,23.47,12.572,37.909h-54.543c-2.841-11.085-7.869-20.368-15.086-27.852-7.224-7.477-17.668-11.218-31.334-11.218-7.482,0-14.119,1.293-19.921,3.868-5.803,2.581-10.639,6.062-14.507,10.444-2.58,2.841-4.774,5.996-6.576,9.478-1.807,3.481-3.228,8.062-4.255,13.732-1.033,5.676-1.74,12.898-2.127,21.662-.388,8.771-.581,19.729-.581,32.881s.193,24.116.581,32.88c.387,8.771,1.094,15.993,2.127,21.663,1.027,5.675,2.448,10.251,4.255,13.732,1.802,3.481,3.996,6.643,6.576,9.477,3.868,4.389,8.704,7.87,14.507,10.445,5.802,2.58,12.438,3.868,19.921,3.868,13.666,0,24.11-3.735,31.334-11.219,7.217-7.477,12.245-16.76,15.086-27.852h54.543c-2.321,14.446-6.516,27.078-12.572,37.909Z"/>
    <path class="cls-2" d="m2593.376,341.576c-10.317,0-19.215-1.674-26.691-5.028-7.482-3.349-13.605-7.737-18.374-13.152-4.775-5.416-8.257-11.539-10.444-18.375-2.194-6.83-3.288-13.859-3.288-21.082V66.154h50.287v214.69c0,5.936,1.354,10.444,4.062,13.539,2.707,3.095,7.283,4.643,13.732,4.643h19.341v42.551h-28.625Z"/>
    <path class="cls-2" d="m2816.579,240.614c0,18.314-1.548,33.594-4.643,45.84-3.095,12.252-9.156,23.149-18.181,32.687-6.189,6.71-14.445,12.512-24.757,17.408-10.317,4.901-22.956,7.35-37.909,7.35s-27.531-2.448-37.716-7.35c-10.19-4.896-18.375-10.698-24.564-17.408-9.029-9.537-15.086-20.435-18.181-32.687-3.095-12.246-4.642-27.525-4.642-45.84s1.547-33.521,4.642-45.646c3.095-12.118,9.151-22.95,18.181-32.493,6.189-6.703,14.374-12.506,24.564-17.407,10.185-4.896,22.756-7.35,37.716-7.35s27.592,2.453,37.909,7.35c10.312,4.901,18.567,10.704,24.757,17.407,9.024,9.543,15.086,20.375,18.181,32.493,3.095,12.125,4.643,27.338,4.643,45.646Zm-50.288,0c0-10.571-.646-20.048-1.935-28.432-1.293-8.377-4.515-15.146-9.67-20.309-5.936-5.929-13.8-8.896-23.597-8.896-9.544,0-17.28,2.968-23.21,8.896-5.162,5.162-8.384,11.932-9.671,20.309-1.293,8.384-1.935,17.86-1.935,28.432s.642,20.115,1.935,28.626c1.287,8.51,4.509,15.346,9.671,20.502,5.93,5.936,13.666,8.896,23.21,8.896,9.797,0,17.661-2.961,23.597-8.896,5.155-5.156,8.377-11.992,9.67-20.502,1.288-8.511,1.935-18.048,1.935-28.626Z"/>
    <path class="cls-2" d="m2980.593,341.576v-18.567c-6.709,6.963-14.445,12.185-23.21,15.666-8.77,3.481-17.794,5.223-27.078,5.223-10.057,0-19.087-1.548-27.077-4.643-7.997-3.095-14.833-7.477-20.502-13.152-8.257-8.25-13.732-17.08-16.44-26.497-2.708-9.411-4.062-19.662-4.062-30.753v-128.814h50.287v121.852c0,6.963.968,12.765,2.901,17.407,1.935,4.642,4.509,8.383,7.736,11.218,3.222,2.841,6.83,4.902,10.832,6.189,3.995,1.293,7.93,1.934,11.798,1.934s7.797-.641,11.798-1.934c3.996-1.287,7.604-3.349,10.832-6.189,3.222-2.835,5.862-6.576,7.93-11.218,2.062-4.643,3.095-10.444,3.095-17.407v-121.852h50.288v201.538h-49.128Z"/>
    <path class="cls-2" d="m3197.604,341.576v-18.955c-6.963,7.737-14.312,13.219-22.05,16.44-7.736,3.222-17.021,4.836-27.852,4.836-9.804,0-19.087-1.614-27.852-4.836-8.771-3.222-15.993-7.67-21.662-13.346-5.162-4.896-9.091-10.698-11.799-17.407-2.707-6.703-4.708-13.793-5.995-21.275-1.294-7.477-2.067-15.213-2.321-23.21-.26-7.99-.387-15.727-.387-23.21s.127-15.146.387-23.016c.254-7.863,1.027-15.534,2.321-23.017,1.287-7.477,3.288-14.506,5.995-21.082,2.708-6.576,6.637-12.439,11.799-17.601,5.669-5.67,12.825-10.118,21.469-13.346,8.638-3.222,17.854-4.835,27.658-4.835,10.312,0,19.402,1.486,27.271,4.448,7.863,2.968,15.146,8.189,21.855,15.666v-91.678h50.288v275.422h-49.127Zm-1.161-100.963c0-8.25-.387-15.859-1.16-22.822s-2.388-13.02-4.835-18.182c-2.454-5.155-5.936-9.217-10.444-12.185-4.516-2.962-10.511-4.448-17.988-4.448s-13.479,1.486-17.987,4.448c-4.515,2.968-7.93,7.029-10.251,12.185-2.321,5.162-3.868,11.219-4.642,18.182s-1.161,14.572-1.161,22.822.388,15.927,1.161,23.017c.773,7.096,2.32,13.219,4.642,18.375,2.321,5.161,5.736,9.223,10.251,12.185,4.509,2.968,10.505,4.448,17.987,4.448s13.473-1.48,17.988-4.448c4.509-2.962,7.99-7.023,10.444-12.185,2.447-5.156,4.062-11.279,4.835-18.375.773-7.09,1.16-14.76,1.16-23.017Z"/>
  </g>
</svg>